<?xml version="1.0" encoding="utf-8"?>
<!-- Generator: Adobe Illustrator 22.0.0, SVG Export Plug-In . SVG Version: 6.00 Build 0)  -->
<svg version="1.1" id="Layer_1" xmlns="http://www.w3.org/2000/svg" xmlns:xlink="http://www.w3.org/1999/xlink" x="0px" y="0px"
	 viewBox="0 0 24 24" style="enable-background:new 0 0 24 24;" xml:space="preserve">
<style type="text/css">
	.st0{fill:#FFFFFF;}
</style>
<path class="st0" d="M3.8,14.7c0,4.6,3.7,8.3,8.2,8.3s8.3-3.7,8.3-8.2c0-4.1-3-7.6-7.1-8.2V2.2C13.2,1.5,12.7,1,12,1
	c-0.7,0-1.2,0.5-1.2,1.2l0,0v4.4C6.8,7.2,3.8,10.7,3.8,14.7 M12,8.9c3.3,0,5.9,2.6,5.9,5.9s-2.6,5.9-5.9,5.9S6.1,18,6.1,14.7
	C6.1,11.5,8.7,8.9,12,8.9"/>
</svg>
