<?xml version="1.0" encoding="utf-8"?>
<!-- Generator: Adobe Illustrator 22.0.0, SVG Export Plug-In . SVG Version: 6.00 Build 0)  -->
<svg version="1.1" id="Layer_1" xmlns="http://www.w3.org/2000/svg" xmlns:xlink="http://www.w3.org/1999/xlink" x="0px" y="0px"
	 viewBox="0 0 24 24" style="enable-background:new 0 0 24 24;" xml:space="preserve">
<style type="text/css">
	.st0{fill:#FFFFFF;}
</style>
<path class="st0" d="M12.7,22.7l2.7-2.7c0.4-0.4,0.4-1,0-1.4c-0.4-0.4-1-0.4-1.4,0L13,19.5v-2.3l1.9,0c0.6,0,1-0.5,1-1
	c0-0.6-0.5-1-1-1l-1.9,0l0-1.3c3.5-0.6,5.9-3.9,5.4-7.4c-0.6-3.5-3.9-5.9-7.4-5.4S5,5,5.6,8.5c0.4,2.8,2.6,4.9,5.4,5.4l0,1.3l-1.9,0
	c-0.6,0-1,0.5-1,1c0,0.6,0.5,1,1,1l1.9,0v2.3l-0.9-0.9c-0.4-0.4-1-0.4-1.4,0c-0.4,0.4-0.4,1,0,1.4l2.7,2.7
	C11.7,23.1,12.3,23.1,12.7,22.7 M7.6,7.5C7.6,5,9.5,3,12,3s4.4,2,4.4,4.4c0,2.5-2,4.4-4.4,4.4c-1.2,0-2.3-0.5-3.1-1.3
	C8,9.8,7.6,8.7,7.6,7.5"/>
</svg>
