<?xml version="1.0" encoding="utf-8"?>
<!-- Generator: Adobe Illustrator 22.0.0, SVG Export Plug-In . SVG Version: 6.00 Build 0)  -->
<svg version="1.1" id="Layer_1" xmlns="http://www.w3.org/2000/svg" xmlns:xlink="http://www.w3.org/1999/xlink" x="0px" y="0px"
	 viewBox="0 0 24 12" style="enable-background:new 0 0 24 12;" xml:space="preserve">
<style type="text/css">
	.st0{fill:#FFFFFF;}
</style>
<path class="st0" d="M22.2,5.2l-7-4.8c-0.5-0.3-1.1-0.2-1.4,0.3C13.5,1.1,13.6,1.7,14,2l4.4,3H2.7c-0.6,0-1,0.4-1,1s0.4,1,1,1h15.7
	L14,10c-0.5,0.3-0.6,0.9-0.3,1.4c0.2,0.3,0.5,0.4,0.8,0.4c0.2,0,0.4-0.1,0.6-0.2l7-4.8c0.3-0.2,0.4-0.5,0.4-0.8S22.5,5.4,22.2,5.2z"
	/>
</svg>
