<?xml version="1.0" encoding="utf-8"?>
<!-- Generator: Adobe Illustrator 22.0.0, SVG Export Plug-In . SVG Version: 6.00 Build 0)  -->
<svg version="1.1" id="Layer_1" xmlns="http://www.w3.org/2000/svg" xmlns:xlink="http://www.w3.org/1999/xlink" x="0px" y="0px"
	 viewBox="0 0 24 24" style="enable-background:new 0 0 24 24;" xml:space="preserve">
<style type="text/css">
	.st0{fill:#FFFFFF;}
</style>
<path class="st0" d="M7,4V2.4C7,2.2,7.2,2,7.4,2h9.2C16.8,2,17,2.2,17,2.4V4h4.6C21.8,4,22,4.2,22,4.4v1.2C22,5.8,21.8,6,21.6,6H20
	v15c0,0.6-0.4,1-1,1H5c-0.6,0-1-0.4-1-1V6H2.4C2.2,6,2,5.8,2,5.6V4.4C2,4.2,2.2,4,2.4,4H7z M6,6v13.5C6,19.8,6.2,20,6.5,20h11
	c0.3,0,0.5-0.2,0.5-0.5V6H6z M9,9h2v8H9V9z M13,9h2v8h-2V9z"/>
</svg>
