<?xml version="1.0" encoding="utf-8"?>
<!-- Generator: Adobe Illustrator 22.0.0, SVG Export Plug-In . SVG Version: 6.00 Build 0)  -->
<svg version="1.1" id="Layer_1" xmlns="http://www.w3.org/2000/svg" xmlns:xlink="http://www.w3.org/1999/xlink" x="0px" y="0px"
	 viewBox="0 0 24 24" style="enable-background:new 0 0 24 24;" xml:space="preserve">
<style type="text/css">
	.st0{fill:#FFFFFF;}
</style>
<g>
	<path class="st0" d="M21.5,6.6H9.3c-0.6,0-1-0.4-1-1v0c0-0.6,0.4-1,1-1h12.2c0.6,0,1,0.4,1,1v0C22.5,6.1,22,6.6,21.5,6.6z"/>
	<path class="st0" d="M21.5,13H9.3c-0.6,0-1-0.4-1-1v0c0-0.6,0.4-1,1-1h12.2c0.6,0,1,0.4,1,1v0C22.5,12.5,22,13,21.5,13z"/>
	<path class="st0" d="M21.5,19.4H9.3c-0.6,0-1-0.4-1-1v0c0-0.6,0.4-1,1-1h12.2c0.6,0,1,0.4,1,1v0C22.5,18.9,22,19.4,21.5,19.4z"/>
	<path class="st0" d="M5.3,5.6L5.9,5c0.4-0.4,0.4-1,0-1.4c-0.4-0.4-1-0.4-1.4,0L3.9,4.2L3.2,3.6c-0.4-0.4-1-0.4-1.4,0
		C1.4,4,1.4,4.6,1.8,5l0.6,0.6L1.8,6.3c-0.4,0.4-0.4,1,0,1.4C2,7.9,2.3,8,2.5,8S3,7.9,3.2,7.7L3.9,7l0.6,0.6C4.7,7.9,4.9,8,5.2,8
		s0.5-0.1,0.7-0.3c0.4-0.4,0.4-1,0-1.4L5.3,5.6z"/>
	<path class="st0" d="M5.3,12l0.6-0.6c0.4-0.4,0.4-1,0-1.4c-0.4-0.4-1-0.4-1.4,0l-0.6,0.6L3.2,9.9c-0.4-0.4-1-0.4-1.4,0
		c-0.4,0.4-0.4,1,0,1.4L2.4,12l-0.6,0.6c-0.4,0.4-0.4,1,0,1.4c0.2,0.2,0.5,0.3,0.7,0.3S3,14.2,3.2,14l0.6-0.6L4.5,14
		c0.2,0.2,0.5,0.3,0.7,0.3s0.5-0.1,0.7-0.3c0.4-0.4,0.4-1,0-1.4L5.3,12z"/>
	<path class="st0" d="M5.3,18.4l0.6-0.6c0.4-0.4,0.4-1,0-1.4c-0.4-0.4-1-0.4-1.4,0L3.9,17l-0.6-0.6c-0.4-0.4-1-0.4-1.4,0
		c-0.4,0.4-0.4,1,0,1.4l0.6,0.6L1.8,19c-0.4,0.4-0.4,1,0,1.4c0.2,0.2,0.5,0.3,0.7,0.3s0.5-0.1,0.7-0.3l0.6-0.6l0.6,0.6
		c0.2,0.2,0.5,0.3,0.7,0.3s0.5-0.1,0.7-0.3c0.4-0.4,0.4-1,0-1.4L5.3,18.4z"/>
</g>
</svg>
