<?xml version="1.0" encoding="utf-8"?>
<!-- Generator: Adobe Illustrator 22.0.0, SVG Export Plug-In . SVG Version: 6.00 Build 0)  -->
<svg version="1.1" id="Layer_1" xmlns="http://www.w3.org/2000/svg" xmlns:xlink="http://www.w3.org/1999/xlink" x="0px" y="0px"
	 viewBox="0 0 24 24" style="enable-background:new 0 0 24 24;" xml:space="preserve">
<style type="text/css">
	.st0{fill:#FFFFFF;}
</style>
<path class="st0" d="M18.6,4C19.4,4,20,4.6,20,5.3v13.3c0,0.7-0.6,1.3-1.3,1.3H5.3H5.2l-0.1,0l-0.1,0c-0.6,0-1.1-0.6-1.1-1.2V5.3
	C4,4.6,4.6,4,5.3,4H18.6 M18.6,2H5.3C3.5,2,2,3.5,2,5.3v13.4c0,1.7,1.4,3.2,3.1,3.2c0.1,0,0.1,0,0.2,0h13.4c1.8,0,3.3-1.5,3.3-3.3
	V5.3C22,3.5,20.5,2,18.6,2L18.6,2z"/>
<polygon class="st0" points="16.9,6.3 9.4,13.8 7.1,11.5 5.2,13.6 9.4,17.8 18.9,8.3 "/>
</svg>
