<?xml version="1.0" encoding="utf-8"?>
<!-- Generator: Adobe Illustrator 22.0.0, SVG Export Plug-In . SVG Version: 6.00 Build 0)  -->
<svg version="1.1" id="Layer_1" xmlns="http://www.w3.org/2000/svg" xmlns:xlink="http://www.w3.org/1999/xlink" x="0px" y="0px"
	 viewBox="0 0 24 24" style="enable-background:new 0 0 24 24;" xml:space="preserve">
<style type="text/css">
	.st0{fill:#FFFFFF;}
</style>
<path class="st0" d="M5.8,22.1c-0.8,0-1.7-0.2-2.5-0.6s-1.5-1-2-1.6c0.5,0,1-0.2,1.5-0.6c0.5-0.4,0.8-0.9,0.8-1.7
	c0-0.9,0.3-1.7,1-2.4c0.7-0.7,1.4-1,2.4-1s1.7,0.3,2.4,1c0.7,0.7,1,1.4,1,2.4c0,1.2-0.4,2.3-1.3,3.2C8.1,21.6,7.1,22.1,5.8,22.1
	 M12.3,15.3l-3.1-3.1l10-10C19.4,2.1,19.7,2,20,1.9c0.3,0,0.6,0.1,0.8,0.3l1.5,1.5c0.2,0.2,0.3,0.5,0.3,0.8s-0.1,0.6-0.3,0.8
	L12.3,15.3z"/>
</svg>
