<?xml version="1.0" encoding="utf-8"?>
<!-- Generator: Adobe Illustrator 22.0.0, SVG Export Plug-In . SVG Version: 6.00 Build 0)  -->
<svg version="1.1" id="Layer_1" xmlns="http://www.w3.org/2000/svg" xmlns:xlink="http://www.w3.org/1999/xlink" x="0px" y="0px"
	 viewBox="0 0 24 24" style="enable-background:new 0 0 24 24;" xml:space="preserve">
<style type="text/css">
	.st0{fill:#FFFFFF;}
</style>
<g>
	<g>
		<path class="st0" d="M7.8,20C7.8,20,7.8,20,7.8,20c-0.3,0-0.6-0.2-0.8-0.4l-4.7-6C2,13.2,2,12.6,2.5,12.2c0.4-0.3,1.1-0.3,1.4,0.2
			l4,5.1l13.2-14c0.4-0.4,1-0.4,1.4,0s0.4,1,0,1.4l-14,14.9C8.4,19.9,8.1,20,7.8,20z"/>
	</g>
</g>
<g>
	<path class="st0" d="M1.9,11.5C2.4,11,3,10.9,3.6,11.1V4.3h15.2l1.5-1.6c0.1-0.1,0.2-0.1,0.2-0.2c-0.2-0.1-0.4-0.2-0.6-0.2H2.6
		c-0.6,0-1,0.4-1,1v8.3C1.7,11.6,1.8,11.5,1.9,11.5z"/>
	<path class="st0" d="M19,10.1v9.6H9.9l-0.7,0.7C8.9,20.8,8.4,21,7.8,21l-0.1,0c-0.6,0-1.1-0.3-1.5-0.8l-0.5-0.6H3.6V17l-2-2.5v6.2
		c0,0.6,0.4,1,1,1H20c0.6,0,1-0.4,1-1V7.9L19,10.1z"/>
</g>
</svg>
