<?xml version="1.0" encoding="utf-8"?>
<!-- Generator: Adobe Illustrator 22.0.0, SVG Export Plug-In . SVG Version: 6.00 Build 0)  -->
<svg version="1.1" id="mdi-arrow-collapse-up" xmlns="http://www.w3.org/2000/svg" xmlns:xlink="http://www.w3.org/1999/xlink"
	 x="0px" y="0px" viewBox="0 0 24 24" style="enable-background:new 0 0 24 24;" xml:space="preserve">
<style type="text/css">
	.st0{fill:#FFFFFF;}
</style>
<g>
	<path class="st0" d="M18.2,11.9l-5.5-5.5c-0.4-0.4-1-0.4-1.4,0l-5.5,5.5c-0.4,0.4-0.4,1,0,1.4c0.2,0.2,0.5,0.3,0.7,0.3
		s0.5-0.1,0.7-0.3L11,9.5V21c0,0.6,0.4,1,1,1s1-0.4,1-1V9.4l3.8,3.8c0.2,0.2,0.5,0.3,0.7,0.3s0.5-0.1,0.7-0.3
		C18.6,12.9,18.6,12.2,18.2,11.9z"/>
	<path class="st0" d="M21,4H3C2.4,4,2,3.6,2,3s0.4-1,1-1h18c0.6,0,1,0.4,1,1S21.6,4,21,4z"/>
</g>
</svg>
