<?xml version="1.0" encoding="utf-8"?>
<!-- Generator: Adobe Illustrator 22.0.0, SVG Export Plug-In . SVG Version: 6.00 Build 0)  -->
<svg version="1.1" id="Layer_1" xmlns="http://www.w3.org/2000/svg" xmlns:xlink="http://www.w3.org/1999/xlink" x="0px" y="0px"
	 viewBox="0 0 24 24" style="enable-background:new 0 0 24 24;" xml:space="preserve">
<style type="text/css">
	.st0{fill:#FFFFFF;}
</style>
<path class="st0" d="M8.6,9.9c-0.3-0.3-0.8-0.3-1.2,0l-2,2c-1.6,1.6-1.8,4.1-0.5,6l-3.7,3.7c-0.3,0.3-0.4,0.8,0,1.2s0.8,0.4,1.2,0
	c0,0,3.7-3.7,3.7-3.7c1.9,1.3,4.4,1.1,6-0.5l2-2c0.3-0.3,0.3-0.8,0-1.2L8.6,9.9z M8.5,12.2L8.5,12.2L8.5,12.2l3.3,3.3l0,0l0,0
	l0.5,0.5l-1.4,1.4c-1.2,1.2-3.1,1.2-4.3,0c0,0,0,0,0,0l-0.1-0.1c-1.2-1.2-1.2-3.1,0-4.3c0,0,0,0,0,0L8,11.7L8.5,12.2z M15.5,14
	c0.3,0.3,0.8,0.3,1.2,0l2-2c1.6-1.6,1.8-4.1,0.5-6l3.6-3.6c0.3-0.3,0.4-0.8,0-1.2s-0.8-0.4-1.2,0c0,0-3.7,3.7-3.7,3.7
	c-1.9-1.3-4.4-1.1-6,0.5l-2,2c-0.3,0.3-0.3,0.8,0,1.2L15.5,14z M15.5,11.8L15.5,11.8L15.5,11.8l-3.3-3.3l0,0l0,0l-0.5-0.5l1.4-1.4
	c1.2-1.2,3.1-1.2,4.3,0c0,0,0,0,0,0l0.1,0.1c1.2,1.2,1.2,3.1,0,4.3c0,0,0,0,0,0l-1.4,1.4L15.5,11.8z"/>
</svg>
