<?xml version="1.0" encoding="utf-8"?>
<!-- Generator: Adobe Illustrator 22.0.0, SVG Export Plug-In . SVG Version: 6.00 Build 0)  -->
<svg version="1.1" id="Layer_1" xmlns="http://www.w3.org/2000/svg" xmlns:xlink="http://www.w3.org/1999/xlink" x="0px" y="0px"
	 viewBox="0 0 24 24" style="enable-background:new 0 0 24 24;" xml:space="preserve">
<style type="text/css">
	.st0{fill:#FFFFFF;}
</style>
<path class="st0" d="M20.7,21.7H3.3c-0.6,0-1-0.4-1-1V3.3c0-0.6,0.4-1,1-1h17.3c0.6,0,1,0.4,1,1v17.3C21.7,21.2,21.2,21.7,20.7,21.7
	z M4.3,19.7h15.3V4.3H4.3V19.7z"/>
<g>
	<path class="st0" d="M13.4,12l4.7-4.7c0.4-0.4,0.4-1,0-1.4s-1-0.4-1.4,0L12,10.6L7.3,5.9c-0.4-0.4-1-0.4-1.4,0s-0.4,1,0,1.4
		l4.7,4.7l-4.7,4.7c-0.4,0.4-0.4,1,0,1.4c0.2,0.2,0.5,0.3,0.7,0.3s0.5-0.1,0.7-0.3l4.7-4.7l4.7,4.7c0.2,0.2,0.5,0.3,0.7,0.3
		s0.5-0.1,0.7-0.3c0.4-0.4,0.4-1,0-1.4L13.4,12z"/>
</g>
</svg>
