<?xml version="1.0" encoding="utf-8"?>
<!-- Generator: Adobe Illustrator 22.0.0, SVG Export Plug-In . SVG Version: 6.00 Build 0)  -->
<svg version="1.1" id="Layer_1" xmlns="http://www.w3.org/2000/svg" xmlns:xlink="http://www.w3.org/1999/xlink" x="0px" y="0px"
	 viewBox="0 0 24 24" style="enable-background:new 0 0 24 24;" xml:space="preserve">
<style type="text/css">
	.st0{fill:#FFFFFF;}
</style>
<g>
	<g>
		<polygon class="st0" points="7.7,10.7 7.7,1.5 4.3,1.5 4.3,10.7 1,10.7 6,16.6 11,10.7 		"/>
	</g>
	<g>
		<polygon class="st0" points="8.7,8.5 8.7,9.7 11,9.7 13.2,9.7 11.8,11.3 6.8,17.2 6,18.1 5.2,17.2 2.8,14.4 2.2,15.5 6.2,22.5 
			14.2,22.5 18.3,15.5 14.2,8.5 		"/>
		<path class="st0" d="M13,7.3c0,0,0.2-5.8-1.6-5.8c-0.8,0-1.9,1.4-2.7,2.9v2.9H13z"/>
		<path class="st0" d="M22.9,9.5C22,8,15.8,8.7,15.8,8.7l2.9,5C18.7,13.7,23.8,11,22.9,9.5z"/>
	</g>
</g>
</svg>
