<?xml version="1.0" encoding="utf-8"?>
<!-- Generator: Adobe Illustrator 22.0.0, SVG Export Plug-In . SVG Version: 6.00 Build 0)  -->
<svg version="1.1" id="Layer_1" xmlns="http://www.w3.org/2000/svg" xmlns:xlink="http://www.w3.org/1999/xlink" x="0px" y="0px"
	 viewBox="0 0 24 24" style="enable-background:new 0 0 24 24;" xml:space="preserve">
<style type="text/css">
	.st0{fill:#FFFFFF;}
</style>
<g>
	<path class="st0" d="M11.3,22.2c-0.2,0-0.4,0-0.6-0.1c-0.3-0.2-0.6-0.5-0.6-0.9l-0.3-2.4c0-0.2,0-0.4,0.1-0.6l8.3-15.5
		c0.4-0.8,1.5-1,2.4-0.5l0,0l1.1,0.6c0.9,0.5,1.3,1.5,0.9,2.3l-8.3,15.5c-0.1,0.2-0.2,0.3-0.4,0.4L11.8,22
		C11.7,22.1,11.5,22.2,11.3,22.2z M10.9,20.3C10.9,20.3,10.9,20.3,10.9,20.3L10.9,20.3z M11.9,18.8l0.1,0.9l0.8-0.4l7.9-14.9
		l-0.9-0.5L11.9,18.8z"/>
	<path class="st0" d="M7.3,22.2H2.1c-0.6,0-1-0.4-1-1s0.4-1,1-1h5.2c0.6,0,1,0.4,1,1S7.9,22.2,7.3,22.2z"/>
	<path class="st0" d="M9.3,14.8H2.1c-0.6,0-1-0.4-1-1c0-0.6,0.4-1,1-1h7.2c0.6,0,1,0.4,1,1C10.3,14.3,9.9,14.8,9.3,14.8z"/>
	<path class="st0" d="M13.2,7.4H2.1c-0.6,0-1-0.4-1-1s0.4-1,1-1h11.1c0.6,0,1,0.4,1,1S13.8,7.4,13.2,7.4z"/>
</g>
</svg>
