<?xml version="1.0" encoding="utf-8"?>
<!-- Generator: Adobe Illustrator 22.0.0, SVG Export Plug-In . SVG Version: 6.00 Build 0)  -->
<svg version="1.1" id="Layer_1" xmlns="http://www.w3.org/2000/svg" xmlns:xlink="http://www.w3.org/1999/xlink" x="0px" y="0px"
	 viewBox="0 0 24 24" style="enable-background:new 0 0 24 24;" xml:space="preserve">
<style type="text/css">
	.st0{fill:#FFFFFF;}
</style>
<path class="st0" d="M15.3,6.4l2.3-2.3v10.6c0,0.6,0.4,1,1,1s1-0.4,1-1V4.1l2.3,2.3c0.2,0.2,0.4,0.3,0.7,0.3c0.3,0,0.5-0.1,0.7-0.3
	c0.4-0.4,0.4-1,0-1.4l-4-4c-0.1-0.1-0.2-0.2-0.3-0.2c-0.2-0.1-0.5-0.1-0.8,0C18.1,0.9,18,0.9,17.9,1l-4,4c-0.4,0.4-0.4,1,0,1.4
	C14.3,6.8,14.9,6.8,15.3,6.4z"/>
<path class="st0" d="M10,4.6H4c-1.5,0-2.7,1.2-2.7,2.7v12.7c0,1.5,1.2,2.7,2.7,2.7h9.2c1.5,0,2.7-1.2,2.7-2.7v-9.4
	c0-0.4-0.1-0.7-0.4-1L10.9,5C10.7,4.8,10.3,4.6,10,4.6z M11.1,8.1l1.3,1.3h-1.3V8.1z M13.2,20.6H4c-0.4,0-0.7-0.3-0.7-0.7V7.3
	c0-0.4,0.3-0.7,0.7-0.7h5.2v3.8c0,0.6,0.4,1,1,1h3.7v8.5C13.8,20.3,13.5,20.6,13.2,20.6z"/>
</svg>
