<?xml version="1.0" encoding="utf-8"?>
<!-- Generator: Adobe Illustrator 22.0.0, SVG Export Plug-In . SVG Version: 6.00 Build 0)  -->
<svg version="1.1" id="Layer_1" xmlns="http://www.w3.org/2000/svg" xmlns:xlink="http://www.w3.org/1999/xlink" x="0px" y="0px"
	 viewBox="0 0 24 24" style="enable-background:new 0 0 24 24;" xml:space="preserve">
<style type="text/css">
	.st0{fill:#FFFFFF;}
</style>
<path class="st0" d="M19.7,8.7C19.7,4.4,16.3,1,12,1C7.7,1,4.3,4.4,4.3,8.7c0,3.8,2.8,7.1,6.6,7.6v1.5H8.3c-0.6,0-1.1,0.5-1.1,1.1
	s0.5,1.1,1.1,1.1h2.6v1.8c0,0.6,0.5,1.1,1.1,1.1c0.6,0,1.1-0.5,1.1-1.1v-1.8h2.6c0.6,0,1.1-0.5,1.1-1.1s-0.5-1.1-1.1-1.1h-2.6v-1.5
	C16.9,15.8,19.7,12.5,19.7,8.7 M6.5,8.7c0-3,2.5-5.5,5.5-5.5s5.5,2.5,5.5,5.5S15,14.2,12,14.2C9,14.2,6.5,11.7,6.5,8.7"/>
</svg>
