<?xml version="1.0" encoding="utf-8"?>
<!-- Generator: Adobe Illustrator 22.0.0, SVG Export Plug-In . SVG Version: 6.00 Build 0)  -->
<svg version="1.1" id="Layer_1" xmlns="http://www.w3.org/2000/svg" xmlns:xlink="http://www.w3.org/1999/xlink" x="0px" y="0px"
	 viewBox="0 0 24 24" style="enable-background:new 0 0 24 24;" xml:space="preserve">
<style type="text/css">
	.st0{fill:#FFFFFF;}
</style>
<path class="st0" d="M21.7,1h-4.7c-0.7,0-1.3,0.6-1.3,1.3s0.6,1.3,1.3,1.3h1.6l-2,2L15,3.9c-0.5-0.5-1.3-0.5-1.8,0
	c-0.5,0.5-0.5,1.3,0,1.8l1.6,1.6l-1.1,1.1c-3.6-2.6-8.6-1.8-11.2,1.8s-1.8,8.6,1.8,11.2s8.6,1.8,11.2-1.8c2-2.8,2-6.6,0-9.4l1.1-1.1
	l1.6,1.6c0.5,0.5,1.3,0.5,1.8,0c0.5-0.5,0.5-1.3,0-1.8l-1.6-1.6l2-2v1.6c0,0.7,0.6,1.3,1.3,1.3S23,7.6,23,6.9V2.3
	C23,1.6,22.4,1,21.7,1 M12.9,18.9c-2.1,2.1-5.6,2.1-7.8,0s-2.1-5.6,0-7.8s5.6-2.1,7.8,0c1,1,1.6,2.4,1.6,3.9
	C14.5,16.4,14,17.8,12.9,18.9"/>
</svg>
