<?xml version="1.0" encoding="utf-8"?>
<!-- Generator: Adobe Illustrator 22.0.0, SVG Export Plug-In . SVG Version: 6.00 Build 0)  -->
<svg version="1.1" id="Layer_1" xmlns="http://www.w3.org/2000/svg" xmlns:xlink="http://www.w3.org/1999/xlink" x="0px" y="0px"
	 viewBox="0 0 24 24" style="enable-background:new 0 0 24 24;" xml:space="preserve">
<style type="text/css">
	.st0{fill:#FFFFFF;}
</style>
<path class="st0" d="M19.1,1h-3.9C14.5,1,14,1.5,14,2.2s0.5,1.2,1.2,1.2h1.1l-1.5,1.5c-2.8-2.4-7-2-9.4,0.9s-2,7,0.9,9.4
	c0.9,0.7,2,1.2,3.1,1.4v1.3h-2c-0.7,0-1.2,0.5-1.2,1.2c0,0.7,0.5,1.2,1.2,1.2h2v1.6c0,0.7,0.5,1.2,1.2,1.2c0.7,0,1.2-0.5,1.2-1.2
	l0,0v-1.6h2c0.7,0,1.2-0.5,1.2-1.2c0-0.7-0.5-1.2-1.2-1.2h-2v-1.3c3.6-0.6,6-4.1,5.4-7.7c-0.1-0.8-0.4-1.5-0.8-2.2L17.9,5v1.1
	c0,0.7,0.5,1.2,1.2,1.2c0.7,0,1.2-0.5,1.2-1.2V2.2C20.3,1.5,19.7,1,19.1,1 M10.4,14.4c-2.4,0-4.3-1.9-4.3-4.3S8,5.7,10.4,5.7
	s4.3,1.9,4.3,4.3C14.8,12.4,12.8,14.4,10.4,14.4"/>
</svg>
