<?xml version="1.0" encoding="utf-8"?>
<!-- Generator: Adobe Illustrator 22.0.0, SVG Export Plug-In . SVG Version: 6.00 Build 0)  -->
<svg version="1.1" id="Layer_1" xmlns="http://www.w3.org/2000/svg" xmlns:xlink="http://www.w3.org/1999/xlink" x="0px" y="0px"
	 viewBox="0 0 24 24" style="enable-background:new 0 0 24 24;" xml:space="preserve">
<style type="text/css">
	.st0{fill:#FFFFFF;}
</style>
<path class="st0" d="M19.2,3H4.8C3.8,3,3,3.8,3,4.8v14.3c0,1,0.8,1.8,1.8,1.8h14.3c1,0,1.8-0.8,1.8-1.8V4.8C21,3.8,20.2,3,19.2,3z
	 M19,18c0,0.6-0.5,1-1,1H6c-0.6,0-1-0.5-1-1V6c0-0.6,0.5-1,1-1h12c0.6,0,1,0.5,1,1V18z"/>
<polygon class="st0" points="5.7,17 18.3,17 14.4,11.7 11.2,15.9 8.8,12.8 "/>
</svg>
