<?xml version="1.0" encoding="utf-8"?>
<!-- Generator: Adobe Illustrator 22.0.0, SVG Export Plug-In . SVG Version: 6.00 Build 0)  -->
<svg version="1.1" id="Layer_1" xmlns="http://www.w3.org/2000/svg" xmlns:xlink="http://www.w3.org/1999/xlink" x="0px" y="0px"
	 viewBox="0 0 24 24" style="enable-background:new 0 0 24 24;" xml:space="preserve">
<style type="text/css">
	.st0{fill:#FFFFFF;}
</style>
<g>
	<polygon class="st0" points="11.2,15.9 10.8,15.4 9.1,17 18.3,17 14.4,11.7 14.3,11.8 	"/>
</g>
<g>
	<path class="st0" d="M19,18c0,0.6-0.5,1-1,1H7.1l-2,2h14.1c1,0,1.8-0.8,1.8-1.8V5.1l-2,2V18z"/>
	<path class="st0" d="M5,6c0-0.6,0.5-1,1-1h10.8l2-2h-14C3.8,3,3,3.8,3,4.8v14.1l2-2V6z"/>
</g>
<g>
	<path class="st0" d="M2.1,22.9c-0.3,0-0.5-0.1-0.7-0.3c-0.4-0.4-0.4-1,0-1.4L21.1,1.4c0.4-0.4,1-0.4,1.4,0s0.4,1,0,1.4L2.9,22.6
		C2.7,22.8,2.4,22.9,2.1,22.9z"/>
</g>
</svg>
