<?xml version="1.0" encoding="utf-8"?>
<!-- Generator: Adobe Illustrator 22.0.0, SVG Export Plug-In . SVG Version: 6.00 Build 0)  -->
<svg version="1.1" id="Layer_1" xmlns="http://www.w3.org/2000/svg" xmlns:xlink="http://www.w3.org/1999/xlink" x="0px" y="0px"
	 viewBox="0 0 24 24" style="enable-background:new 0 0 24 24;" xml:space="preserve">
<style type="text/css">
	.st0{fill:#FFFFFF;}
</style>
<g>
	<path class="st0" d="M20,15.5c-0.6,0-1,0.4-1,1V20c0,0.6-0.4,1-1,1H6c-0.6,0-1-0.4-1-1v-3.5c0-0.6-0.4-1-1-1s-1,0.4-1,1V20
		c0,1.7,1.3,3,3,3h12c1.7,0,3-1.3,3-3v-3.5C21,15.9,20.6,15.5,20,15.5z"/>
	<path class="st0" d="M15.3,10.3L13,12.6V2c0-0.6-0.4-1-1-1s-1,0.4-1,1v10.6l-2.3-2.3C8.5,10.1,8.3,10,8,10c-0.3,0-0.5,0.1-0.7,0.3
		c-0.4,0.4-0.4,1,0,1.4l4,4c0.1,0.1,0.2,0.2,0.3,0.2c0.2,0.1,0.5,0.1,0.8,0c0.1-0.1,0.2-0.1,0.3-0.2l4-4c0.4-0.4,0.4-1,0-1.4
		C16.3,9.9,15.7,9.9,15.3,10.3z"/>
</g>
</svg>
