<?xml version="1.0" encoding="utf-8"?>
<!-- Generator: Adobe Illustrator 22.0.0, SVG Export Plug-In . SVG Version: 6.00 Build 0)  -->
<svg version="1.1" id="Layer_1" xmlns="http://www.w3.org/2000/svg" xmlns:xlink="http://www.w3.org/1999/xlink" x="0px" y="0px"
	 viewBox="0 0 24 24" style="enable-background:new 0 0 24 24;" xml:space="preserve">
<style type="text/css">
	.st0{fill:#FFFFFF;}
</style>
<path class="st0" d="M21.7,1h-5.1c-0.7,0-1.3,0.6-1.3,1.3s0.6,1.3,1.3,1.3h2L15.2,7C11.3,4.1,5.7,4.9,2.8,8.8s-2.1,9.5,1.8,12.4
	s9.5,2.1,12.4-1.8c2.4-3.2,2.4-7.5,0-10.6l3.5-3.5v2c0,0.7,0.6,1.3,1.3,1.3S23,8,23,7.3V2.3C23,1.6,22.4,1,21.7,1 M14.4,18.6
	c-2.5,2.5-6.5,2.5-9,0s-2.5-6.5,0-9c2.5-2.5,6.5-2.5,9,0C16.8,12.1,16.8,16.1,14.4,18.6"/>
</svg>
