<?xml version="1.0" encoding="utf-8"?>
<!-- Generator: Adobe Illustrator 22.0.0, SVG Export Plug-In . SVG Version: 6.00 Build 0)  -->
<svg version="1.1" id="Layer_1" xmlns="http://www.w3.org/2000/svg" xmlns:xlink="http://www.w3.org/1999/xlink" x="0px" y="0px"
	 viewBox="0 0 24 24" style="enable-background:new 0 0 24 24;" xml:space="preserve">
<style type="text/css">
	.st0{fill:#FFFFFF;}
</style>
<path class="st0" d="M18.2,1h-3.3C14.4,1,14,1.4,14,1.9s0.4,0.9,0.9,0.9H16l-2.1,2.1C11.4,3.1,7.8,3.7,6,6.2
	c-1.8,2.5-1.3,6.1,1.3,7.9c0.7,0.5,1.6,0.8,2.4,1l0,1.1l-1.6,0c-0.5,0-0.9,0.4-0.9,0.9S7.6,18,8.1,18l1.6,0v2l-0.8-0.8
	c-0.3-0.3-0.9-0.3-1.3,0c-0.3,0.3-0.3,0.9,0,1.3l2.3,2.3c0.3,0.3,0.9,0.3,1.3,0l2.3-2.3c0.3-0.3,0.3-0.9,0-1.3
	c-0.3-0.3-0.9-0.3-1.3,0L11.5,20v-2l1.6,0c0.5,0,0.9-0.4,0.9-0.9s-0.4-0.9-0.9-0.9l-1.6,0l0-1.1c1.4-0.2,2.8-1,3.7-2.3
	c1.4-2,1.4-4.6,0-6.6L17.3,4v1.1c0,0.5,0.4,0.9,0.9,0.9s0.9-0.4,0.9-0.9V1.9C19.1,1.4,18.7,1,18.2,1z M13.3,12.2
	c-1.5,1.5-4,1.5-5.5,0s-1.5-4,0-5.5c1.5-1.5,4-1.5,5.5,0c0.7,0.7,1.1,1.7,1.1,2.7C14.4,10.5,14,11.5,13.3,12.2z"/>
</svg>
