<?xml version="1.0" encoding="utf-8"?>
<!-- Generator: Adobe Illustrator 22.0.0, SVG Export Plug-In . SVG Version: 6.00 Build 0)  -->
<svg version="1.1" id="Layer_1" xmlns="http://www.w3.org/2000/svg" xmlns:xlink="http://www.w3.org/1999/xlink" x="0px" y="0px"
	 viewBox="0 0 24 24" style="enable-background:new 0 0 24 24;" xml:space="preserve">
<style type="text/css">
	.st0{fill:#FFFFFF;}
</style>
<path class="st0" d="M15.8,11.5c0-0.6-0.1-1.3-0.1-1.9h3.2c0.2,0.6,0.2,1.2,0.2,1.9c0,0.4,0,0.7-0.1,1c0.7,0.1,1.3,0.3,1.8,0.6
	c0.1-0.5,0.2-1.1,0.2-1.6C21,6.3,16.7,2,11.5,2C6.3,2,2,6.3,2,11.5S6.3,21,11.5,21c0.6,0,1.1-0.1,1.6-0.2c-0.5-0.8-0.7-1.8-0.7-2.7
	c0-0.3,0-0.5,0.1-0.8c-0.3,0.6-0.6,1.2-1,1.7c-0.8-1.1-1.4-2.4-1.8-3.8h3.5c0.6-1,1.4-1.8,2.5-2.3C15.8,12.5,15.8,12,15.8,11.5
	 M11.5,4c0.8,1.1,1.4,2.4,1.8,3.8H9.7C10.1,6.4,10.7,5.1,11.5,4 M4.2,13.4c-0.2-0.6-0.2-1.2-0.2-1.9S4,10.2,4.2,9.6h3.2
	c-0.1,0.6-0.1,1.3-0.1,1.9s0.1,1.3,0.1,1.9H4.2z M5,15.3h2.8c0.3,1.2,0.8,2.3,1.3,3.4C7.3,18.1,5.9,16.9,5,15.3 M7.7,7.7H5
	c0.9-1.6,2.4-2.8,4.1-3.4C8.5,5.4,8.1,6.5,7.7,7.7 M13.7,13.4H9.3c-0.1-0.6-0.2-1.3-0.2-1.9s0.1-1.3,0.2-1.9h4.4
	c0.1,0.6,0.2,1.3,0.2,1.9S13.8,12.8,13.7,13.4 M14,4.3c1.7,0.6,3.2,1.8,4.1,3.4h-2.8C15,6.5,14.6,5.4,14,4.3 M22,17.2v1.9h-2.8V22
	h-1.9v-2.8h-2.8v-1.9h2.8v-2.8h1.9v2.8H22z"/>
</svg>
