<?xml version="1.0" encoding="utf-8"?>
<!-- Generator: Adobe Illustrator 22.0.0, SVG Export Plug-In . SVG Version: 6.00 Build 0)  -->
<svg version="1.1" id="Layer_1" xmlns="http://www.w3.org/2000/svg" xmlns:xlink="http://www.w3.org/1999/xlink" x="0px" y="0px"
	 viewBox="0 0 24 24" style="enable-background:new 0 0 24 24;" xml:space="preserve">
<style type="text/css">
	.st0{fill:#FFFFFF;}
	.st1{fill:#70BE44;}
</style>
<g>
	<g>
		<path class="st0" d="M12,20.5H5.8c-0.5,0-0.8-0.3-0.8-0.8V7.4c0-0.5,0.3-0.8,0.8-0.8h5.4v3.8c0,0.5,0.3,0.8,0.8,0.8h3.8V12l1.5,0
			v-1.5c0-0.1,0-0.2-0.1-0.3c-0.1-0.1-0.1-0.2-0.2-0.2l-4.6-4.6c-0.1-0.1-0.2-0.2-0.2-0.2c-0.1-0.1-0.2-0.1-0.3-0.1H5.8
			c-1.3,0-2.3,1-2.3,2.3v12.3c0,1.3,1,2.3,2.3,2.3H12V20.5z M12.8,7.7l2,2h-2V7.7z"/>
	</g>
	<g>
		<path class="st0" d="M15.8,4.6l2,2H16l-0.2-0.2V4.6z M20.5,12V7.4c0-0.1,0-0.2-0.1-0.3s-0.1-0.2-0.2-0.2l-4.6-4.6
			c-0.1-0.1-0.2-0.2-0.2-0.2C15.3,2,15.2,2,15.1,2H8.9C7.9,2,7,2.6,6.7,3.5l2.2,0h5.4v0.8v0.6l3.2,3.2h1.4V12L20.5,12z"/>
	</g>
</g>
<polygon class="st1" points="17,22 17,19 14,19 14,17 17,17 17,14 19,14 19,17 22,17 22,19 19,19 19,22 "/>
</svg>
