<?xml version="1.0" encoding="utf-8"?>
<!-- Generator: Adobe Illustrator 22.0.0, SVG Export Plug-In . SVG Version: 6.00 Build 0)  -->
<svg version="1.1" id="Layer_1" xmlns="http://www.w3.org/2000/svg" xmlns:xlink="http://www.w3.org/1999/xlink" x="0px" y="0px"
	 viewBox="0 0 24 24" style="enable-background:new 0 0 24 24;" xml:space="preserve">
<style type="text/css">
	.st0{fill:#6FBE44;}
	.st1{fill:#6699CC;}
	.st2{fill:#FFFFFF;}
</style>
<g>
	<polygon class="st0" points="17,12.3 17,9.3 14,9.3 14,7.3 17,7.3 17,4.3 19,4.3 19,7.3 22,7.3 22,9.3 19,9.3 19,12.3 	"/>
	<path class="st1" d="M9.5,18.3h-5c-0.3,0-0.5-0.2-0.5-0.5v-11c0-0.3,0.2-0.5,0.5-0.5h5c0.3,0,0.5,0.2,0.5,0.5v11
		C10,18.1,9.8,18.3,9.5,18.3z M2,5.1v14.4c0,0.4,0.4,0.8,0.8,0.8h8.4c0.4,0,0.8-0.4,0.8-0.8V5.1c0-0.4-0.4-0.8-0.8-0.8H2.8
		C2.4,4.3,2,4.7,2,5.1z"/>
	<rect x="14" y="18.3" class="st2" width="8" height="2"/>
</g>
</svg>
