<?xml version="1.0" encoding="utf-8"?>
<!-- Generator: Adobe Illustrator 22.0.0, SVG Export Plug-In . SVG Version: 6.00 Build 0)  -->
<svg version="1.1" id="Layer_1" xmlns="http://www.w3.org/2000/svg" xmlns:xlink="http://www.w3.org/1999/xlink" x="0px" y="0px"
	 viewBox="0 0 24 24" style="enable-background:new 0 0 24 24;" xml:space="preserve">
<style type="text/css">
	.st0{fill:#FFFFFF;}
</style>
<path class="st0" d="M21.5,10.8c0-0.1-0.2-0.3-0.3-0.3l-1.4-0.1c-0.2,0-0.4,0.2-0.3,0.4c0.7,2.9-0.3,6.1-3,8c-2.8,2-6.7,2-9.4-0.2
	c-4-3.3-3.8-9.5,0.6-12.5c2.5-1.7,5.9-1.7,8.4-0.1c0.5,0.4,1,0.8,1.4,1.2l-3.3-0.2c-0.6,0-1,0.4-1.1,0.9c0,0.3,0.1,0.6,0.3,0.8
	c0.2,0.2,0.4,0.3,0.7,0.3l7.1,0.4l-0.4-7.1c0-0.6-0.5-1-1.1-0.9c-0.6,0-1,0.5-0.9,1.1L19,6c-0.5-0.5-1.1-1-1.8-1.5
	C14,2.3,9.6,2.5,6.4,4.7c-5.5,3.9-5.5,12,0,15.9c3.3,2.3,7.7,2.4,11,0.1C20.9,18.4,22.2,14.5,21.5,10.8z"/>
</svg>
