<?xml version="1.0" encoding="utf-8"?>
<!-- Generator: Adobe Illustrator 22.0.0, SVG Export Plug-In . SVG Version: 6.00 Build 0)  -->
<svg version="1.1" id="Layer_1" xmlns="http://www.w3.org/2000/svg" xmlns:xlink="http://www.w3.org/1999/xlink" x="0px" y="0px"
	 viewBox="0 0 24 24" style="enable-background:new 0 0 24 24;" xml:space="preserve">
<style type="text/css">
	.st0{fill:#FFFFFF;}
</style>
<g>
	<path class="st0" d="M18.5,11.6c-1.9-1-4.1-0.8-5.8,0.3l0-0.4c0-0.6-0.4-1-1-1c0,0,0,0,0,0c-0.6,0-1,0.4-1,1l0,2.9c0,0.6,0.4,1,1,1
		l2.7,0c0,0,0,0,0,0c0.5,0,1-0.4,1-1c0-0.6-0.4-1-1-1l-0.3,0c1.1-0.5,2.3-0.6,3.5,0c1.9,0.9,2.6,3.2,1.7,5.1
		c-0.5,0.9-1.2,1.6-2.2,1.9c-1,0.3-2,0.2-2.9-0.2c-1.3-0.7-2.1-2.1-2.1-3.5c0-0.6-0.4-1-1-1c-0.5,0-1,0.4-1,1
		c-0.1,2.3,1.2,4.4,3.2,5.4c0.8,0.4,1.7,0.6,2.6,0.6c0.6,0,1.2-0.1,1.8-0.3c1.5-0.5,2.7-1.5,3.4-2.9C22.5,16.6,21.3,13.1,18.5,11.6z
		"/>
</g>
<g>
	<path class="st0" d="M17.4,13.8c-0.1-0.1-0.3-0.1-0.5-0.2l-1,1c-0.1,0.6-0.6,1.1-1.2,1.2l-1.9,1.9c0.2,0.7,0.6,1.2,1.2,1.6l4.6-4.6
		C18.2,14.5,17.9,14.1,17.4,13.8z"/>
	<path class="st0" d="M9.7,17.8l-5.1-5.1l8.6-8.6l6.3,0.4l0.4,6.3l-0.7,0.7c0.6,0.4,1.1,0.8,1.5,1.3l0.9-0.9
		c0.2-0.2,0.3-0.5,0.3-0.8l-0.4-7.6c0-0.5-0.4-0.9-0.9-0.9l-7.6-0.4c-0.3,0-0.6,0.1-0.8,0.3L2.5,12c-0.4,0.4-0.4,1,0,1.4l8,8.1
		c0.2,0.2,0.4,0.3,0.7,0.3c0,0,0,0,0,0c0.2,0,0.4-0.1,0.6-0.2C10.7,20.6,9.9,19.3,9.7,17.8z"/>
</g>
</svg>
