<?xml version="1.0" encoding="utf-8"?>
<!-- Generator: Adobe Illustrator 22.0.0, SVG Export Plug-In . SVG Version: 6.00 Build 0)  -->
<svg version="1.1" id="Layer_1" xmlns="http://www.w3.org/2000/svg" xmlns:xlink="http://www.w3.org/1999/xlink" x="0px" y="0px"
	 viewBox="0 0 24 24" style="enable-background:new 0 0 24 24;" xml:space="preserve">
<style type="text/css">
	.st0{fill:#FFFFFF;}
</style>
<g>
</g>
<path class="st0" d="M22.6,9.2c-0.8-2.8-2.6-5.2-5.1-6.7C13.1-0.1,7.7,0.8,4.3,4.2V2c0-0.6-0.4-1-1-1s-1,0.4-1,1v5c0,0.6,0.4,1,1,1
	h5c0.6,0,1-0.4,1-1s-0.4-1-1-1h-3c2.8-3.1,7.5-4,11.2-1.8c2.1,1.2,3.6,3.1,4.2,5.5s0.3,4.7-0.9,6.8c-2.5,4.3-8,5.8-12.3,3.3
	C4.7,18.2,3,15.2,3,12c0-0.6-0.4-1-1-1c-0.6,0-1,0.4-1,1c0,3.9,2.1,7.6,5.5,9.5c1.7,1,3.6,1.5,5.5,1.5c1,0,1.9-0.1,2.8-0.4
	c2.8-0.8,5.2-2.6,6.7-5.1S23.4,12,22.6,9.2z"/>
</svg>
