<?xml version="1.0" encoding="utf-8"?>
<!-- Generator: Adobe Illustrator 22.0.0, SVG Export Plug-In . SVG Version: 6.00 Build 0)  -->
<svg version="1.1"
	 id="Layer_1" inkscape:version="1.3 (0e150ed6c4, 2023-07-21)" sodipodi:docname="save-icon-original.svg" xmlns:inkscape="http://www.inkscape.org/namespaces/inkscape" xmlns:sodipodi="http://sodipodi.sourceforge.net/DTD/sodipodi-0.dtd" xmlns:svg="http://www.w3.org/2000/svg"
	 xmlns="http://www.w3.org/2000/svg" xmlns:xlink="http://www.w3.org/1999/xlink" x="0px" y="0px" viewBox="0 0 24 24"
	 style="enable-background:new 0 0 24 24;" xml:space="preserve">
<style type="text/css">
	.st0{fill:#FFFFFF;}
</style>
<sodipodi:namedview  bordercolor="#000000" borderopacity="0.25" id="namedview1" inkscape:current-layer="Layer_1" inkscape:cx="12" inkscape:cy="12" inkscape:deskcolor="#d1d1d1" inkscape:pagecheckerboard="0" inkscape:pageopacity="0.0" inkscape:showpageshadow="2" inkscape:window-height="1057" inkscape:window-maximized="1" inkscape:window-width="1920" inkscape:window-x="-8" inkscape:window-y="-8" inkscape:zoom="35.875" pagecolor="#ffffff">
	</sodipodi:namedview>
<path id="path1" class="st0" d="M21.7,7.3l-5-5C16.5,2.1,16.3,2,16,2H5C3.3,2,2,3.3,2,5v14c0,1.7,1.3,3,3,3h14c1.7,0,3-1.3,3-3V8
	C22,7.7,21.9,7.5,21.7,7.3z M16,20H8v-6h8V20z M20,19c0,0.6-0.4,1-1,1h-1v-7c0-0.6-0.4-1-1-1H7c-0.6,0-1,0.4-1,1v7H5
	c-0.6,0-1-0.4-1-1V5c0-0.6,0.4-1,1-1h1v4c0,0.6,0.4,1,1,1h8c0.6,0,1-0.4,1-1s-0.4-1-1-1H8V4h7.6L20,8.4V19z"/>
</svg>
