<?xml version="1.0" encoding="utf-8"?>
<!-- Generator: Adobe Illustrator 22.0.0, SVG Export Plug-In . SVG Version: 6.00 Build 0)  -->
<svg version="1.1" id="Flat" xmlns="http://www.w3.org/2000/svg" xmlns:xlink="http://www.w3.org/1999/xlink" x="0px" y="0px"
	 viewBox="0 0 24 24" style="enable-background:new 0 0 24 24;" xml:space="preserve">
<style type="text/css">
	.st0{fill:#FFFFFF;}
</style>
<path class="st0" d="M22.7,14.8c-0.4-0.4-1-0.4-1.4,0l-3.4,3.4V9.5c0-0.6-0.4-1-1-1s-1,0.4-1,1v8.7l-3.4-3.4c-0.4-0.4-1-0.4-1.4,0
	c-0.4,0.4-0.4,1,0,1.4l5.1,5.1c0.2,0.2,0.5,0.3,0.7,0.3s0.5-0.1,0.7-0.3l5.1-5.1C23.1,15.8,23.1,15.2,22.7,14.8z"/>
<path class="st0" d="M8.4,19.1H3.1c-0.6,0-1-0.4-1-1s0.4-1,1-1h5.3c0.6,0,1,0.4,1,1S8.9,19.1,8.4,19.1z"/>
<path class="st0" d="M12.8,12.1H3.1c-0.6,0-1-0.4-1-1s0.4-1,1-1h9.7c0.6,0,1,0.4,1,1S13.4,12.1,12.8,12.1z"/>
<path class="st0" d="M20.9,5.1H3.1c-0.6,0-1-0.4-1-1s0.4-1,1-1h17.8c0.6,0,1,0.4,1,1S21.5,5.1,20.9,5.1z"/>
</svg>
