<?xml version="1.0" encoding="utf-8"?>
<!-- Generator: Adobe Illustrator 22.0.0, SVG Export Plug-In . SVG Version: 6.00 Build 0)  -->
<svg version="1.1" id="Layer_1" xmlns="http://www.w3.org/2000/svg" xmlns:xlink="http://www.w3.org/1999/xlink" x="0px" y="0px"
	 viewBox="0 0 24 24" style="enable-background:new 0 0 24 24;" xml:space="preserve">
<style type="text/css">
	.st0{fill:#FFFFFF;}
</style>
<path class="st0" d="M10.8,6.2L7.2,2.7c0,0,0,0,0,0L6.5,2L5.8,2.7c0,0,0,0,0,0L2.3,6.2c-0.4,0.4-0.4,1,0,1.4s1,0.4,1.4,0l1.8-1.8v6
	c0,0.6,0.4,1,1,1s1-0.4,1-1v-6l1.8,1.8c0.2,0.2,0.5,0.3,0.7,0.3s0.5-0.1,0.7-0.3C11.2,7.3,11.2,6.6,10.8,6.2z"/>
<path class="st0" d="M19.7,8.4l0.2,4.2l-6.6,6.6l-4.4-4.4l6.6-6.6L19.7,8.4z M6.8,15.5l5.8,5.8c0.4,0.4,1,0.4,1.4,0l7.6-7.6
	c0.2-0.2,0.3-0.5,0.3-0.8l-0.3-5.5c0-0.5-0.4-0.9-0.9-0.9l-5.5-0.3c-0.3,0-0.6,0.1-0.8,0.3L6.8,14C6.4,14.4,6.4,15.1,6.8,15.5z"/>
</svg>
