<?xml version="1.0" encoding="utf-8"?>
<!-- Generator: Adobe Illustrator 22.0.0, SVG Export Plug-In . SVG Version: 6.00 Build 0)  -->
<svg version="1.1" id="Layer_1" xmlns="http://www.w3.org/2000/svg" xmlns:xlink="http://www.w3.org/1999/xlink" x="0px" y="0px"
	 viewBox="0 0 24 24" style="enable-background:new 0 0 24 24;" xml:space="preserve">
<style type="text/css">
	.st0{fill:#FFFFFF;}
</style>
<rect x="13.5" y="1.3" transform="matrix(-0.7071 0.7071 -0.7071 -0.7071 26.4546 -6.3378)" class="st0" width="2" height="2"/>
<rect x="21" y="0.6" transform="matrix(-0.7071 -0.7071 0.7071 -0.7071 36.5128 18.265)" class="st0" width="2" height="2"/>
<rect x="18.5" y="12" transform="matrix(-0.7071 0.7071 -0.7071 -0.7071 42.4514 8.3695)" class="st0" width="2" height="2"/>
<path class="st0" d="M21.2,4.2c-0.9-0.9-2.5-0.9-3.4,0l-15,15c-0.5,0.5-0.7,1.1-0.7,1.7s0.3,1.3,0.7,1.7c0.5,0.5,1.1,0.7,1.7,0.7
	c0.6,0,1.3-0.3,1.7-0.7l15-15c0.5-0.5,0.7-1.1,0.7-1.7S21.7,4.6,21.2,4.2z M19.8,6.2l-3.2,3.2L16,8.8l3.2-3.2
	c0.1-0.1,0.2-0.1,0.3-0.1c0.1,0,0.2,0,0.3,0.1c0.1,0.1,0.1,0.2,0.1,0.3S19.9,6.1,19.8,6.2z"/>
</svg>
